<?xml version="1.0" standalone="no"?>
<!DOCTYPE svg PUBLIC "-//W3C//DTD SVG 20010904//EN"
 "http://www.w3.org/TR/2001/REC-SVG-20010904/DTD/svg10.dtd">
<svg version="1.0" xmlns="http://www.w3.org/2000/svg"
 width="533.000000pt" height="626.000000pt" viewBox="0 0 533.000000 626.000000"
 preserveAspectRatio="xMidYMid meet">

<g transform="translate(0.000000,626.000000) scale(0.100000,-0.100000)"
fill="#000000" stroke="none">
<path d="M1096 5061 c-16 -17 -17 -26 -7 -71 16 -75 13 -206 -8 -375 -16 -120
-21 -246 -26 -625 -6 -421 -5 -486 10 -575 55 -330 249 -683 547 -1000 120
-128 176 -231 222 -407 46 -177 60 -310 59 -580 0 -229 5 -284 21 -225 10 37
7 442 -5 545 -22 206 -74 392 -142 514 -20 37 -80 113 -133 170 -264 285 -441
585 -521 885 -25 93 -27 112 -30 398 -5 332 10 810 30 951 10 80 15 94 40 115
22 18 30 36 34 70 6 49 -8 85 -54 147 -24 32 -24 52 2 52 25 0 84 -82 104
-144 27 -80 31 -114 35 -286 2 -116 7 -155 23 -196 11 -28 17 -58 13 -65 -4
-8 -31 -81 -60 -164 -79 -229 -119 -415 -90 -415 5 0 12 17 16 38 27 159 143
512 195 596 114 185 200 276 348 366 85 52 98 57 124 48 59 -21 144 31 179
108 16 34 36 30 54 -10 32 -66 16 -98 -109 -219 -62 -60 -144 -133 -184 -163
-75 -57 -152 -150 -238 -290 -27 -43 -67 -101 -88 -128 -89 -114 -180 -294
-212 -417 -18 -70 -19 -89 -2 -89 7 0 17 24 24 59 21 115 125 318 223 438 40
49 66 67 220 149 96 52 217 113 269 135 93 41 94 41 128 25 32 -15 37 -15 77
2 23 11 58 36 78 56 31 32 38 35 62 26 20 -7 26 -16 26 -40 0 -37 -67 -109
-120 -128 -122 -45 -124 -47 -181 -117 -65 -81 -150 -150 -257 -211 l-75 -43
-2 -54 c-3 -68 -23 -105 -97 -187 -55 -60 -113 -160 -120 -204 -6 -36 20 -27
33 11 17 53 71 135 120 183 58 56 211 157 257 169 20 6 62 17 92 25 30 8 80
31 112 49 37 23 61 31 70 26 38 -24 126 4 190 60 42 37 58 39 58 9 0 -27 -133
-159 -199 -198 -241 -142 -383 -266 -442 -385 -33 -68 -34 -72 -33 -195 0
-118 2 -132 38 -235 50 -148 96 -231 221 -394 220 -288 319 -351 556 -351 279
0 502 100 710 316 115 121 175 228 203 367 19 90 22 397 5 475 -5 28 -44 114
-85 193 -138 265 -166 340 -150 402 5 22 12 27 36 27 28 0 30 -2 30 -39 0 -42
39 -126 72 -153 11 -10 35 -18 52 -18 28 0 39 -9 83 -67 27 -38 70 -97 94
-133 23 -36 66 -90 95 -120 31 -33 58 -73 67 -101 38 -111 49 -433 21 -616
-15 -102 -14 -127 6 -107 17 18 40 236 39 382 -1 148 13 335 32 447 20 113 21
170 5 288 -23 160 -70 342 -118 455 -36 82 -40 100 -36 153 5 68 31 106 65 95
18 -6 20 -13 15 -76 -5 -68 -4 -70 28 -100 19 -17 46 -34 62 -37 35 -7 32 -3
89 -143 25 -63 70 -167 98 -230 88 -194 141 -369 141 -469 0 -42 16 -64 26
-36 20 50 -41 294 -112 450 -25 55 -92 216 -150 357 -117 290 -124 320 -75
369 16 16 37 29 46 29 13 0 15 -8 9 -50 -11 -87 40 -180 100 -180 36 0 69 -79
126 -308 31 -119 42 -187 51 -317 11 -151 18 -181 33 -156 3 5 1 79 -6 165
-12 173 -10 196 42 366 40 132 110 240 155 240 11 0 31 -7 43 -16 l23 -16 -40
-37 c-51 -47 -58 -78 -37 -150 40 -130 41 -184 6 -383 -44 -253 -76 -378 -122
-483 -86 -196 -112 -266 -148 -414 -44 -176 -72 -239 -180 -400 -88 -132 -160
-216 -269 -315 -181 -164 -255 -302 -281 -532 -13 -117 -10 -266 6 -271 8 -3
13 47 17 159 10 305 68 433 285 628 142 128 304 346 384 516 16 34 42 117 59
185 40 167 53 205 114 340 71 155 109 277 135 434 12 72 28 162 37 200 9 42
15 132 16 225 2 140 4 159 25 197 12 23 22 56 22 72 0 69 -88 114 -141 72 -63
-49 -127 -180 -160 -325 -7 -31 -15 -53 -19 -49 -4 4 -15 42 -25 83 -25 108
-54 198 -80 250 -13 25 -32 81 -44 125 -28 99 -56 150 -92 166 -58 23 -135
-25 -145 -92 -4 -21 -8 -39 -9 -39 -1 0 -20 7 -40 16 -36 15 -40 14 -64 -4
-57 -42 -67 -151 -22 -246 77 -164 133 -408 134 -586 1 -119 -21 -330 -35
-330 -4 0 -8 6 -8 13 0 43 -27 96 -78 151 -32 33 -79 95 -106 136 -27 41 -64
94 -83 117 -18 23 -52 81 -74 130 -57 124 -98 163 -174 163 -51 0 -73 -15 -80
-54 -13 -67 14 -144 129 -368 l111 -218 0 -243 c0 -228 -1 -246 -23 -307 -39
-109 -98 -198 -201 -300 -153 -153 -306 -240 -481 -275 -75 -15 -180 -24 -180
-16 0 3 19 17 42 30 154 88 224 235 184 390 -9 35 -15 65 -14 66 2 1 28 13 58
28 66 31 186 128 195 156 13 41 -147 217 -218 240 -33 11 -42 10 -80 -9 -23
-12 -51 -30 -62 -39 -30 -27 -42 -32 -59 -25 -13 5 -16 26 -16 125 0 108 -2
119 -20 129 -14 7 -26 8 -39 0 -30 -15 -68 -12 -111 10 -58 29 -76 73 -44 104
20 20 34 20 34 1 0 -43 73 -71 104 -40 13 14 18 13 48 -5 51 -31 110 -26 185
15 74 41 99 45 83 15 -12 -23 0 -54 25 -64 21 -8 55 10 55 29 0 18 -12 19 -27
4 -12 -12 -33 -4 -33 11 0 22 40 31 69 15 58 -29 104 -13 117 42 9 33 -19 90
-51 105 -38 17 -41 2 -6 -31 34 -32 41 -70 15 -95 -20 -20 -21 -20 -69 9 -58
36 -101 33 -193 -16 -90 -48 -103 -47 -199 11 -93 56 -167 52 -193 -10 -34
-83 96 -174 198 -137 22 8 22 8 22 -91 l0 -100 -62 1 c-69 1 -108 -14 -166
-64 -21 -18 -44 -29 -63 -29 -29 0 -30 -2 -24 -32 11 -58 54 -135 95 -172 77
-70 205 -116 323 -116 69 0 76 16 10 25 -27 3 -68 8 -93 11 -138 17 -259 107
-298 221 -10 31 -9 32 22 43 19 6 42 20 52 32 25 28 92 58 129 58 29 0 91 -26
127 -52 14 -10 22 -7 48 19 18 17 52 42 76 55 l44 23 36 -20 c34 -18 164 -149
164 -165 0 -4 -17 -4 -37 1 -147 34 -382 48 -488 28 -63 -12 -135 -43 -135
-59 0 -15 12 -12 66 13 45 20 64 22 214 22 158 0 361 -24 383 -45 14 -13 -102
-101 -181 -137 -44 -21 -71 -39 -68 -46 45 -106 46 -216 2 -290 -35 -61 -111
-127 -191 -166 -59 -29 -73 -32 -118 -27 -84 12 -154 53 -248 146 -157 157
-307 377 -369 542 -53 143 -66 315 -31 408 44 116 169 236 373 360 124 75 247
180 275 233 32 62 -14 104 -106 95 -58 -6 -100 -26 -203 -100 -74 -54 -149
-88 -192 -88 -27 0 -115 -41 -172 -80 l-44 -29 6 62 c7 70 10 74 104 126 84
48 182 131 229 194 45 62 67 78 138 101 104 34 176 109 171 176 -3 30 -9 38
-43 54 l-39 20 -61 -23 c-33 -13 -105 -40 -160 -61 -99 -37 -351 -158 -454
-219 -29 -18 -56 -30 -58 -27 -6 6 67 114 131 194 28 35 79 84 114 109 35 25
114 95 177 157 91 89 116 120 126 154 24 82 -29 166 -105 166 -25 0 -46 -11
-86 -47 -30 -25 -112 -83 -184 -129 -153 -98 -245 -184 -334 -316 -35 -51 -67
-90 -71 -87 -19 11 -31 101 -31 222 0 201 -39 335 -116 402 -40 36 -64 39 -88
12z m914 -89 c0 -15 -60 -90 -85 -106 -25 -17 -79 -22 -73 -8 2 5 32 34 68 65
61 52 90 68 90 49z m-862 -47 c16 -35 15 -87 -2 -110 -13 -18 -15 -12 -18 58
-1 42 0 77 3 77 3 0 11 -11 17 -25z m2917 -390 c19 -68 15 -86 -13 -69 -38 24
-70 143 -45 168 14 13 40 -32 58 -99z m-172 -99 c16 -38 26 -71 23 -74 -11
-11 -59 23 -71 50 -13 33 -8 101 9 95 6 -2 24 -34 39 -71z m-1674 48 c-20 -24
-69 -46 -87 -39 -12 5 -2 13 38 30 68 29 65 28 49 9z m2302 -193 c-12 -22 -21
-50 -21 -61 0 -12 -4 -18 -10 -15 -20 12 -11 71 16 100 34 36 40 26 15 -24z
m-2156 -211 c-14 -22 -112 -70 -144 -70 -30 0 -32 2 -20 17 31 37 185 87 164
53z m1031 -42 c28 -34 63 -103 64 -126 0 -9 -10 -12 -27 -10 -22 2 -34 14 -55
53 -27 48 -37 115 -19 115 5 0 22 -15 37 -32z m-895 -498 c28 -16 23 -32 -8
-28 -17 2 -29 10 -31 21 -4 19 10 22 39 7z"/>
</g>
</svg>
